# xmcd
#
# Track frame offsets:
#	150
#	20012
#	36977
#	49102
#	66587
#	83045
#	100892
#	111977
#	126860
#	142982
#	157157
#	172052
#
# Disc length: 2507 seconds
#
# Revision: 0
# Processed by: cddbd v1.5.2PL0 Copyright (c) Steve Scherf et al.
# Submitted via: dBpowerAMP V4.0
#
DISCID=af09c90c
DTITLE=Cimar Rodrigues - Reanime a Esperança
DYEAR=2009
DGENRE=Gospel
TTITLE0=Quero Agradecer
TTITLE1=O Fazendeiro e o Santo
TTITLE2=Glória ao Senhor Jeová
TTITLE3=Jesus sim, Religião não
TTITLE4=Na mão de Deus
TTITLE5=O crente e o cristão
TTITLE6=O toque de Jesus
TTITLE7=Pai
TTITLE8=Reanime a Esperança
TTITLE9=Toma Jesus
TTITLE10=Pai (Play Back)
TTITLE11=Reanime a Esperança (Play Back)
EXTD=
EXTT0=
EXTT1=
EXTT2=
EXTT3=
EXTT4=
EXTT5=
EXTT6=
EXTT7=
EXTT8=
EXTT9=
EXTT10=
EXTT11=
PLAYORDER=
